<?xml version="1.0" encoding="UTF-8"?>
<svg id="_图层_2" data-name="图层 2" xmlns="http://www.w3.org/2000/svg" viewBox="0 0 39.78 46.98">
  <defs>
    <style>
      .cls-1 {
        fill: #7f0d0d;
      }

      .cls-2 {
        fill: #fff;
      }

      .cls-3 {
        fill: #fd9f6f;
      }

      .cls-4 {
        fill: #00c19c;
      }
    </style>
  </defs>
  <g id="Layer_1" data-name="Layer 1">
    <g>
      <circle class="cls-2" cx="14.85" cy="23.85" r="13.95"/>
      <circle class="cls-3" cx="17.73" cy="26.73" r="13.95"/>
      <path class="cls-1" d="M14.85,38.7C6.66,38.7,0,32.04,0,23.85s6.66-14.85,14.85-14.85,14.85,6.66,14.85,14.85-6.66,14.85-14.85,14.85ZM14.85,10.8c-7.2,0-13.05,5.85-13.05,13.05s5.85,13.05,13.05,13.05,13.05-5.85,13.05-13.05-5.85-13.05-13.05-13.05Z"/>
      <path class="cls-2" d="M16.96,12.42c-5.18,1.39-10.89-3.11-10.89-3.11,0,0,2.69-6.75,7.87-8.14s10.89,3.11,10.89,3.11c0,0-2.69,6.75-7.87,8.14Z"/>
      <path class="cls-4" d="M19.84,15.3c-5.18,1.39-10.89-3.11-10.89-3.11,0,0,2.69-6.75,7.87-8.14s10.89,3.11,10.89,3.11c0,0-2.69,6.75-7.87,8.14Z"/>
      <path class="cls-1" d="M14.87,13.59c-4.76,0-9.14-3.41-9.35-3.57-.31-.25-.43-.67-.28-1.04.12-.29,2.92-7.19,8.47-8.68,5.55-1.49,11.43,3.08,11.68,3.28.31.25.43.67.28,1.04-.12.29-2.92,7.19-8.47,8.68-.77.21-1.56.3-2.33.3ZM7.2,9.01c1.51,1.02,5.75,3.56,9.53,2.55h0c3.8-1.02,6.19-5.33,6.98-6.97-1.5-1.02-5.75-3.56-9.53-2.55s-6.19,5.33-6.98,6.97Z"/>
      <path class="cls-1" d="M8.46,16.56c-.39,0-.75-.26-.86-.65-.01-.05-1.4-4.76-4.24-8.14-.32-.38-.27-.95.11-1.27.38-.32.95-.27,1.27.11,3.09,3.68,4.53,8.59,4.59,8.8.14.48-.14.98-.62,1.11-.08.02-.17.04-.25.04Z"/>
      <path class="cls-1" d="M1.56,5.81c-.17,0-.35-.05-.5-.15-.19-.13-.39-.25-.6-.37-.43-.24-.59-.79-.35-1.22.24-.43.79-.59,1.22-.35.25.14.49.29.73.45.41.28.52.84.24,1.25-.17.26-.46.4-.75.4Z"/>
      <path class="cls-2" d="M36.9,31.59c0,6.91-5.6,12.51-12.51,12.51s-12.51-5.6-12.51-12.51h25.02Z"/>
      <path class="cls-3" d="M39.78,34.47c0,6.91-5.6,12.51-12.51,12.51-6.91,0-12.51-5.6-12.51-12.51h25.02Z"/>
      <path class="cls-1" d="M24.39,45c-7.39,0-13.41-6.02-13.41-13.41,0-.5.4-.9.9-.9h25.02c.5,0,.9.4.9.9,0,7.39-6.02,13.41-13.41,13.41ZM12.81,32.49c.46,5.98,5.48,10.71,11.58,10.71s11.11-4.73,11.58-10.71H12.81Z"/>
      <g>
        <path class="cls-1" d="M24.39,40.83c-.5,0-.9-.4-.9-.9v-4.77c0-.5.4-.9.9-.9s.9.4.9.9v4.77c0,.5-.4.9-.9.9Z"/>
        <path class="cls-1" d="M30.29,38.39c-.23,0-.46-.09-.64-.26l-3-3c-.35-.35-.35-.92,0-1.27s.92-.35,1.27,0l3,3c.35.35.35.92,0,1.27-.18.18-.41.26-.64.26Z"/>
        <path class="cls-1" d="M21.43,35.45c-.23,0-.46-.09-.64-.26-.35-.35-.35-.92,0-1.27l.15-.15c.35-.35.92-.35,1.27,0s.35.92,0,1.27l-.15.15c-.18.18-.41.26-.64.26Z"/>
        <path class="cls-1" d="M18.49,38.39c-.23,0-.46-.09-.64-.26-.35-.35-.35-.92,0-1.27l.87-.87c.35-.35.92-.35,1.27,0,.35.35.35.92,0,1.27l-.87.87c-.18.18-.41.26-.64.26Z"/>
      </g>
    </g>
  </g>
</svg>